<?xml version="1.0" standalone="no"?>
<!DOCTYPE svg PUBLIC "-//W3C//DTD SVG 20010904//EN"
 "http://www.w3.org/TR/2001/REC-SVG-20010904/DTD/svg10.dtd">
<svg version="1.0" xmlns="http://www.w3.org/2000/svg"
 width="512.000000pt" height="512.000000pt" viewBox="0 0 512.000000 512.000000"
 preserveAspectRatio="xMidYMid meet">
<metadata>
Created by potrace 1.14, written by Peter Selinger 2001-2017
</metadata>
<g transform="translate(0.000000,512.000000) scale(0.100000,-0.100000)"
fill="#000000" stroke="none">
<path d="M3382 4861 c-41 -10 -83 -23 -95 -29 -12 -5 -42 -18 -67 -28 -149
-61 -312 -199 -412 -348 -23 -34 -42 -62 -43 -64 -2 -2 -62 36 -135 84 -73 48
-135 83 -139 78 -5 -5 -45 -64 -90 -131 l-81 -122 33 -24 c17 -14 76 -53 130
-87 53 -35 97 -66 97 -69 -1 -3 -14 -28 -31 -56 -106 -177 -152 -316 -164
-492 -2 -32 -4 -60 -4 -63 -1 -3 -13 -7 -27 -8 -40 -3 -180 -41 -248 -66 -361
-136 -646 -437 -764 -806 -47 -146 -57 -216 -57 -385 0 -181 15 -278 64 -419
12 -33 21 -61 21 -63 0 -1 -45 -3 -100 -3 -119 0 -156 -12 -196 -66 -24 -32
-29 -47 -29 -95 1 -99 53 -149 164 -157 62 -4 72 -7 76 -26 8 -38 28 -141 31
-156 12 -70 47 -251 73 -370 17 -80 33 -161 36 -180 12 -73 8 -70 106 -70 49
0 89 -3 89 -6 0 -3 -7 -28 -16 -55 -35 -107 4 -248 92 -329 70 -64 123 -84
224 -84 74 0 93 4 144 29 65 33 129 99 158 163 27 61 34 166 14 222 -9 25 -16
48 -16 53 0 4 153 7 341 7 319 0 340 -1 335 -17 -21 -71 -28 -122 -23 -167 11
-112 91 -221 195 -268 35 -16 68 -22 132 -22 75 -1 92 3 140 28 73 37 122 86
155 153 34 71 44 169 21 233 -9 25 -16 48 -16 53 0 4 40 7 89 7 98 0 92 -4
107 80 3 14 22 111 44 215 32 161 70 353 84 430 14 74 12 72 88 77 74 6 104
21 142 72 29 38 29 134 0 173 -44 59 -74 70 -191 72 -59 1 -108 3 -110 4 -1 2
11 43 26 92 45 139 59 241 56 405 -2 80 -8 170 -14 200 -6 30 -14 67 -16 82
-9 47 -66 201 -102 272 -154 306 -414 530 -745 642 -54 18 -98 31 -98 29 0 -2
-14 0 -30 5 -35 10 -120 22 -169 24 -19 1 -36 7 -38 13 -5 14 86 190 146 286
l43 67 31 -22 30 -22 24 31 24 32 86 -55 c83 -54 368 -241 860 -566 133 -88
245 -160 250 -161 8 -1 94 121 153 215 l29 46 -82 53 c-83 54 -506 332 -802
527 -88 59 -195 130 -238 160 l-77 54 20 34 21 34 -35 16 -35 17 46 66 c93
134 204 264 321 375 28 28 52 59 52 70 0 25 -22 96 -29 95 -3 0 -39 -9 -79
-18z"/>
</g>
</svg>
